<svg width="25" height="25" viewBox="0 0 25 25" fill="none" xmlns="http://www.w3.org/2000/svg">
    <g clip-path="url(#clip0_1_1556)">
        <path d="M16.7804 0.855087C15.5201 0.942262 14.047 1.749 13.1885 2.79952C12.4054 3.75253 11.7612 5.16801 12.0124 6.54359C13.3895 6.58644 14.8123 5.7605 15.6368 4.69224C16.4081 3.69786 16.9917 2.29125 16.7804 0.855087Z" fill="#A8A8A8"/>
        <path d="M21.761 8.78647C20.5509 7.26904 18.8503 6.38843 17.2442 6.38843C15.1239 6.38843 14.2271 7.40349 12.754 7.40349C11.2351 7.40349 10.0811 6.39138 8.24748 6.39138C6.44636 6.39138 4.52852 7.49215 3.31251 9.37452C1.60301 12.0252 1.89556 17.0089 4.66593 21.2539C5.65736 22.7728 6.98123 24.4808 8.7129 24.4956C10.254 24.5104 10.6884 23.5071 12.7761 23.4968C14.8639 23.485 15.2599 24.5089 16.798 24.4927C18.5311 24.4794 19.9274 22.5866 20.9188 21.0677C21.6295 19.9788 21.894 19.4306 22.4451 18.2013C18.4366 16.675 17.7938 10.9747 21.761 8.78647Z" fill="#A8A8A8"/>
    </g>
    <defs>
        <clipPath id="clip0_1_1556">
            <rect width="23.6407" height="23.6407" fill="white" transform="translate(0.528076 0.855118)"/>
        </clipPath>
    </defs>
</svg>