<svg width="24" height="25" viewBox="0 0 24 25" fill="none" xmlns="http://www.w3.org/2000/svg">
    <g clip-path="url(#clip0_1_1547)">
        <path d="M23.0615 10.6202L13.4187 10.6197C12.9928 10.6197 12.6477 10.9648 12.6477 11.3906V14.471C12.6477 14.8968 12.9928 15.242 13.4186 15.242H18.8489C18.2542 16.7851 17.1444 18.0774 15.7285 18.8986L18.0439 22.9068C21.7582 20.7587 23.9541 16.9897 23.9541 12.7704C23.9541 12.1697 23.9098 11.7402 23.8213 11.2566C23.7539 10.8892 23.435 10.6202 23.0615 10.6202Z" fill="#167EE6"/>
        <path d="M12.1331 19.8705C9.47563 19.8705 7.15571 18.4185 5.90972 16.2699L1.90161 18.5802C3.94131 22.1153 7.76233 24.4958 12.1331 24.4958C14.2772 24.4958 16.3004 23.9185 18.0433 22.9125V22.907L15.7278 18.8987C14.6687 19.513 13.4431 19.8705 12.1331 19.8705Z" fill="#12B347"/>
        <path d="M18.0447 22.9124V22.9069L15.7292 18.8986C14.6701 19.5128 13.4446 19.8704 12.1345 19.8704V24.4957C14.2787 24.4957 16.3019 23.9184 18.0447 22.9124Z" fill="#0F993E"/>
        <path d="M4.93956 12.6754C4.93956 11.3655 5.29704 10.1401 5.91119 9.08098L1.90308 6.77075C0.891466 8.50811 0.314209 10.5258 0.314209 12.6754C0.314209 14.8251 0.891466 16.8427 1.90308 18.5801L5.91119 16.2699C5.29704 15.2108 4.93956 13.9853 4.93956 12.6754Z" fill="#FFD500"/>
        <path d="M12.1331 5.48044C13.866 5.48044 15.4578 6.09621 16.7011 7.12047C17.0078 7.37313 17.4536 7.35489 17.7346 7.07393L19.9172 4.89132C20.236 4.57254 20.2133 4.05074 19.8727 3.75532C17.7896 1.94815 15.0793 0.855087 12.1331 0.855087C7.76233 0.855087 3.94131 3.23564 1.90161 6.77075L5.90972 9.08098C7.15571 6.93241 9.47563 5.48044 12.1331 5.48044Z" fill="#FE724C"/>
        <path d="M16.7025 7.12047C17.0093 7.37313 17.4551 7.35489 17.736 7.07393L19.9186 4.89132C20.2374 4.57254 20.2147 4.05074 19.8742 3.75532C17.7911 1.9481 15.0807 0.855087 12.1345 0.855087V5.48044C13.8674 5.48044 15.4592 6.09621 16.7025 7.12047Z" fill="#D93F21"/>
    </g>
    <defs>
        <clipPath id="clip0_1_1547">
            <rect width="23.6407" height="23.6407" fill="white" transform="translate(0.313477 0.855118)"/>
        </clipPath>
    </defs>
</svg>
